/* XPM */
static char *bfcd4a3217d74cd2d8d3190734eba77cYCVn29YDDQnFf368[] = {
/* columns rows colors chars-per-pixel */
"32 32 183 2 ",
"   c None",
".  c #04050C",
"X  c #04090E",
"o  c #050C13",
"O  c #090F13",
"+  c #050D1A",
"@  c #030611",
"#  c #061015",
"$  c #081316",
"%  c #05121B",
"&  c #08151D",
"*  c #08191D",
"=  c #061A22",
"-  c #051C2C",
";  c #041324",
":  c #051F35",
">  c #082024",
",  c #05242D",
"<  c #08202C",
"1  c #042531",
"2  c #052B34",
"3  c #0B2C36",
"4  c #072E3A",
"5  c #092D3A",
"6  c #063439",
"7  c #0A2940",
"8  c #0B3443",
"9  c #063E4F",
"0  c #083D49",
"q  c #033443",
"w  c #074157",
"e  c #084957",
"r  c #054A5B",
"t  c #084B59",
"y  c #06495A",
"u  c #055562",
"i  c #085161",
"p  c #065A6C",
"a  c #0B6576",
"s  c #09677A",
"d  c #046E7C",
"f  c #0E6F8A",
"g  c #0D6D80",
"h  c #0B7584",
"j  c #047888",
"k  c #25738A",
"l  c #078695",
"z  c #0C8493",
"x  c #05869A",
"c  c #068C9A",
"v  c #148894",
"b  c #0997A0",
"n  c #0D9CA3",
"m  c #069DAF",
"M  c #0594AB",
"N  c #0B9FB4",
"B  c #1F9BB5",
"V  c #329DB4",
"C  c #0FA7AD",
"Z  c #0DA9AE",
"A  c #0DACBC",
"S  c #51B3BF",
"D  c #0AABC4",
"F  c #08B3C2",
"G  c #24B3C4",
"H  c #0881E8",
"J  c #079BEF",
"K  c #0489F6",
"L  c #0693F5",
"P  c #0993F2",
"I  c #079AF6",
"U  c #0A98F3",
"Y  c #0796F9",
"T  c #189DF2",
"R  c #2A99E8",
"E  c #2496F7",
"W  c #239FF2",
"Q  c #07A1F7",
"!  c #05AFF9",
"~  c #06A5F7",
"^  c #1BA9F1",
"/  c #07B2F6",
"(  c #06B2FA",
")  c #05BDF2",
"_  c #19B6F5",
"`  c #3EA8F1",
"'  c #3FB3F0",
"]  c #3EBAF3",
"[  c #64BECC",
"{  c #6FB1EB",
"}  c #60BEF3",
"|  c #0ACFDE",
" . c #0EC6D4",
".. c #1FD0DD",
"X. c #20C4D3",
"o. c #3FCCD7",
"O. c #14DBE7",
"+. c #11DDEB",
"@. c #19DBEC",
"#. c #17D3E5",
"$. c #05C7F1",
"%. c #07C4F9",
"&. c #12C7F8",
"*. c #11C9F1",
"=. c #05D6F7",
"-. c #07D3F8",
";. c #03DFF2",
":. c #18DFF3",
">. c #2ED8E2",
",. c #34DFE8",
"<. c #3CDFE8",
"1. c #0AE0E9",
"2. c #15E1EC",
"3. c #1BE6EE",
"4. c #0BF7ED",
"5. c #05F4EF",
"6. c #15F3EF",
"7. c #1CF9EB",
"8. c #17F7EB",
"9. c #05E4F4",
"0. c #04E7F8",
"q. c #06EEF9",
"w. c #19EFF1",
"e. c #1DE0F8",
"r. c #19E9F8",
"t. c #09F4F7",
"y. c #12F6F7",
"u. c #1FF3FA",
"i. c #11F3F9",
"p. c #28E8EE",
"a. c #27EBED",
"s. c #31E2EF",
"d. c #29F7EE",
"f. c #31F6E7",
"g. c #20E6F3",
"h. c #23EDF7",
"j. c #3CE9F8",
"k. c #28F0F7",
"l. c #2DF5FC",
"z. c #3CF3FA",
"x. c #33F6FB",
"c. c #40C8D2",
"v. c #44CED8",
"b. c #40C5F3",
"n. c #4AD4F7",
"m. c #72DEEC",
"M. c #6CC7F5",
"N. c #7AC7F6",
"B. c #6FD7F1",
"V. c #7FDEF5",
"C. c #74D9F6",
"Z. c #44EDEF",
"A. c #55E7EF",
"S. c #4AF1EB",
"D. c #43EEF2",
"F. c #50EDF1",
"G. c #5EEFF1",
"H. c #54E8F8",
"J. c #53E2F0",
"K. c #46F9FD",
"L. c #5DF4FB",
"P. c #58F7FA",
"I. c #79E6EB",
"U. c #6DF3ED",
"Y. c #66E4F6",
"T. c #71E0F7",
"R. c #7AEFF6",
"E. c #76E9FA",
"W. c #64F7FA",
"Q. c #78F3FA",
"!. c #80B5EC",
"~. c #84CCF3",
"^. c #9BDCF6",
"/. c #9FE7ED",
"(. c #80E9F0",
"). c #87E4F1",
"_. c #99E2F7",
"`. c #92EEF7",
"'. c #90EEF9",
"]. c #8CFAFB",
"[. c #97F3F9",
"{. c #AAE5F0",
"}. c #D0E7F8",
/* pixels */
"                                                                ",
"                                                  l.z.          ",
"                                                K.L.            ",
"                                              P.Q.h.            ",
"                                          i.].E.u.              ",
"                                        u.[.n.e.                ",
"                                    q.x._._ _ r.                ",
"                      m u 2 = - s | W.~.U U j.                  ",
"                    8 O * + 3 g ..`.` L P b.                    ",
"                m % . = % 2 z ,.^.W Y Y ' s.                    ",
"              F % O + < e A R.N.Q Q I T J.f M                   ",
"              - # o - a X.[.] ( ( ! P M.N 5 :                   ",
"            j o * < z A.V.&.%.%.%./ } >.9 O + p                 ",
"            q $ & t m.T.-.-.-.=.=.^ Y.l % % + -                 ",
"            + o o 0 [ H.0.9.9.+.;.C. .i 5 8 3 +                 ",
"          N o o . = h {.y.t.@.3.h.L.<.o.v.c.v < x               ",
"          m o o . o 4 V W.#.O.'.T.}.!.{ B.Z.h > j               ",
"            + O . + = i B D (.] R H J *.p.n 2 $ c               ",
"            ; & . & . & y G N.K L ) :.D.n 2 o #                 ",
"            r O . . X % p ).E ~ 9.g.F.Z 2 # o 1                 ",
"            x @ O o O 5 S M.$.5.w.D.C 2 . o + d                 ",
"              r % o O a /.1.4.6.a.C 6 X o O 4                   ",
"                7 . 5 [ S.8.6.3.b 2 X . X =                     ",
"                  w k I.7.8.2.c , o o X 1                       ",
"                    I.f.8.O.z , X X % u                         ",
"                    U.d.+. .d t p j                             ",
"                  Q.d.@.                                        ",
"                z.G.2.                                          ",
"                L.s.                                            ",
"              k.j.                                              ",
"              u.                                                ",
"                                                                "
};
