/* XPM */
static char *dd84441ff2c64c73802c57836f6ec9a7jG6ZEALEPC9gDyvS[] = {
/* columns rows colors chars-per-pixel */
"16 17 82 1 ",
"  c None",
". c #04080F",
"X c #060B11",
"o c #070B12",
"O c #040D15",
"+ c #040E15",
"@ c #060E15",
"# c #060E18",
"$ c #050E1A",
"% c #091111",
"& c #051319",
"* c #03141C",
"= c #03151E",
"- c #08111D",
"; c #05181F",
": c #071620",
"> c #041326",
", c #051B23",
"< c #051D20",
"1 c #06252E",
"2 c #052735",
"3 c #042832",
"4 c #072C39",
"5 c #07313B",
"6 c #043E47",
"7 c #063E49",
"8 c #04404C",
"9 c #0D4853",
"0 c #124552",
"q c #04545C",
"w c #055760",
"e c #055267",
"r c #095666",
"t c #0B5667",
"y c #055A62",
"u c #055B69",
"i c #0A7085",
"p c #0B9EA7",
"a c #1795B0",
"s c #11A3AD",
"d c #16A2B4",
"f c #16AEB2",
"g c #14AFB4",
"h c #31AEBE",
"j c #4298A7",
"k c #469FB6",
"l c #1EB9C5",
"z c #0797F8",
"x c #0CB7EE",
"c c #06B0F8",
"v c #19B5F2",
"b c #2EBEE4",
"n c #2CA9F4",
"m c #33A6F0",
"M c #22BBF7",
"N c #4CBAC2",
"B c #44BAF0",
"V c #48BBF6",
"C c #3DC4D0",
"Z c #11D3E2",
"A c #1DDDEC",
"S c #06D5F5",
"D c #08D6F8",
"F c #11DEFB",
"G c #22CDF6",
"H c #3ADCF7",
"J c #10F3ED",
"K c #18F5EA",
"L c #11E3F0",
"P c #14ECF4",
"I c #39F2EE",
"U c #48C3D9",
"Y c #57D2E3",
"T c #4DCEF5",
"R c #6AD8E8",
"E c #69CAF4",
"W c #48EBEE",
"Q c #56EDF6",
"! c #5AEBF5",
"~ c #41F1FC",
"^ c #50F5FC",
"/ c #60EDF9",
/* pixels */
"                ",
"                ",
"           ^~   ",
"          /H    ",
"      67lTnF    ",
"    8.5hVzb     ",
"   u@tYMcBte    ",
"   ,1RDSGd:>    ",
"   $@jPA!UC9    ",
"   $o4aEmxs=    ",
"   2o@kvLg;3    ",
"    -0WJf<%     ",
"    iNKp=&w     ",
"     IZyq       ",
"    Q           ",
"                ",
"                "
};
