/* XPM */
static char *e1362685331d4a23bca9d0d7cbe6431cuztowzmY00NlAxCY[] = {
/* columns rows colors chars-per-pixel */
"48 48 229 2 ",
"   c None",
".  c #03050B",
"X  c #040A0E",
"o  c #030612",
"O  c #050C13",
"+  c #050E1A",
"@  c #090F1C",
"#  c #071113",
"$  c #091214",
"%  c #05121B",
"&  c #08131A",
"*  c #0A191C",
"=  c #050E22",
"-  c #050D2B",
";  c #061621",
":  c #081523",
">  c #041921",
",  c #091B22",
"<  c #07192B",
"1  c #051C32",
"2  c #0B2026",
"3  c #04222C",
"4  c #082427",
"5  c #062434",
"6  c #072B36",
"7  c #062B3A",
"8  c #07273A",
"9  c #052240",
"0  c #073444",
"q  c #063C4B",
"w  c #093C4C",
"e  c #073A43",
"r  c #053A56",
"t  c #04424C",
"y  c #064653",
"u  c #094553",
"i  c #0A4A5C",
"p  c #074B58",
"a  c #07515B",
"s  c #084E61",
"d  c #095362",
"f  c #095D65",
"g  c #065966",
"h  c #055E78",
"j  c #076273",
"k  c #086378",
"l  c #056E7D",
"z  c #0A697B",
"x  c #096B85",
"c  c #0B758B",
"v  c #097A8D",
"b  c #097284",
"n  c #0E7F93",
"m  c #0B7792",
"M  c #0678E5",
"N  c #09818C",
"B  c #0B8393",
"V  c #068596",
"C  c #118596",
"Z  c #0D8FA6",
"A  c #0C80A1",
"S  c #059AAC",
"D  c #0C97A6",
"F  c #0C9AB1",
"G  c #1C9BB0",
"H  c #1A8DA6",
"J  c #0AA2AB",
"K  c #07A4B5",
"L  c #0BA6BC",
"P  c #09AAB3",
"I  c #17A3B4",
"U  c #0BB4BB",
"Y  c #13B5BB",
"T  c #05ADC1",
"R  c #05B4C4",
"E  c #0DB6C6",
"W  c #09BECA",
"Q  c #12BDC1",
"!  c #11B6C7",
"~  c #0CBDD4",
"^  c #3DADC6",
"/  c #2BBAC6",
"(  c #0688EC",
")  c #0998EF",
"_  c #048CF5",
"`  c #0584F7",
"'  c #128DF5",
"]  c #0594F6",
"[  c #0A92F3",
"{  c #069AF4",
"}  c #099AF5",
"|  c #0694F8",
" . c #069CF9",
".. c #159EF1",
"X. c #2790EC",
"o. c #09B6EF",
"O. c #0AA5F3",
"+. c #09ABF6",
"@. c #06A6FA",
"#. c #07AFF5",
"$. c #06B2FA",
"%. c #07BFFA",
"&. c #09BAF5",
"*. c #1AB4F5",
"=. c #2DABEF",
"-. c #31A3EF",
";. c #29A2F1",
":. c #38A9F1",
">. c #5CB4EF",
",. c #46B1F3",
"<. c #59BFF2",
"1. c #6BBBF0",
"2. c #7EBEF7",
"3. c #77B3EB",
"4. c #06CBDA",
"5. c #19C8D9",
"6. c #0CD1DD",
"7. c #15D0DD",
"8. c #3FC9DB",
"9. c #3ED6DE",
"0. c #0BCAE7",
"q. c #15CBE3",
"w. c #05D4EB",
"e. c #0CD7E9",
"r. c #1AD3E7",
"t. c #13D6E5",
"y. c #05C7F5",
"u. c #06CCF3",
"i. c #06CBF9",
"p. c #05C2FA",
"a. c #1CC2F4",
"s. c #05DBF4",
"d. c #06D6F9",
"f. c #04D7F6",
"g. c #17D8F7",
"h. c #21D9EA",
"j. c #22DCF8",
"k. c #39CDF7",
"l. c #0CE3EC",
"z. c #05EBEE",
"x. c #18E5EB",
"c. c #0CF5ED",
"v. c #0BF9ED",
"b. c #05F4EE",
"n. c #14F6EB",
"m. c #1BFAEA",
"M. c #14F8EA",
"N. c #03EDF5",
"B. c #06E3F8",
"V. c #07EFF9",
"C. c #0CEEFA",
"Z. c #06E1F5",
"A. c #18E8F4",
"S. c #04F5FA",
"D. c #08F6F8",
"F. c #15F2F3",
"G. c #1CF1F1",
"H. c #14F3FA",
"J. c #18F4FA",
"K. c #22E3EA",
"L. c #2DE4EC",
"P. c #28EBEC",
"I. c #33EDEF",
"U. c #34E3EE",
"Y. c #27F7E8",
"T. c #21EFFA",
"R. c #27E8F5",
"E. c #3DECF1",
"W. c #35E9F7",
"Q. c #2EF1F2",
"!. c #2CF3FA",
"~. c #27F5F7",
"^. c #33F5F7",
"/. c #32F1FB",
"(. c #3AF6FA",
"). c #35F6EB",
"_. c #48C8D2",
"`. c #6CCAD9",
"'. c #50C1F3",
"]. c #4DD1F4",
"[. c #4ED1F4",
"{. c #6FC9F4",
"}. c #7BCCF3",
"|. c #74D5F3",
" X c #64D6F1",
".X c #46E4EC",
"XX c #53E8EA",
"oX c #43EDF2",
"OX c #47ECF5",
"+X c #54ECF4",
"@X c #5AE7F4",
"#X c #47F6F9",
"$X c #59F7FA",
"%X c #46F2E7",
"&X c #66EEEE",
"*X c #76ECEF",
"=X c #6CEDF5",
"-X c #7DEEF4",
";X c #6AF9FA",
":X c #7DF7FC",
">X c #73F3FA",
",X c #83CADF",
"<X c #89D3DF",
"1X c #8ECFF3",
"2X c #A9CCF0",
"3X c #A4D7F3",
"4X c #95ECED",
"5X c #84F3EE",
"6X c #87E8F9",
"7X c #8BF3F9",
"8X c #8AF8FB",
"9X c #94F3FB",
"0X c #94FAFC",
"qX c #9EE6F8",
"wX c #A7E4F7",
"eX c #BDE5F4",
"rX c #B3E7F8",
"tX c #A3F4FA",
"yX c #A8F1F5",
"uX c #BCF4FA",
"iX c #B6F6F9",
"pX c #C2DBF3",
"aX c #C2EDF7",
"sX c #D1EDFB",
"dX c #C5F5F9",
"fX c #CBF4FB",
"gX c #C4F6F9",
"hX c #D7F1F9",
"jX c #E7F5FB",
/* pixels */
"                                                                                                ",
"                                                                                                ",
"                                                                            !.#X                ",
"                                                                          (.$X                  ",
"                                                                      H.#X:X!.                  ",
"                                                                    H.;X9X/.                    ",
"                                                                  H.8XtX/.C.                    ",
"                                                              V.!.gX6XR.H.                      ",
"                                                            F.#XgX Xg.T.                        ",
"                                                          F.;XaXk.&.j.V.                        ",
"                                                      V.J.0X1X*.+.*.T.                          ",
"                                    V y 3 > % 1 i Z l.~.uX>.{ } ..W.                            ",
"                                k < O o % ; 3 i C 6.$XeX:.] ] [ ].C.                            ",
"                            S : + . , % O 3 d F x.9X3X[ | ] [ <./.                              ",
"                          j o . X 2 X ; 7 k E L.uX1.] | | ] ;.@XV.                              ",
"                        b o . . + + > w B 6.>XeX;. . . .{ } 6X5.A                               ",
"                      K + . * + : 6 d F K.iX1XO.@.@.@.{ [ {.U.n 7 h                             ",
"                      5 X * + + 7 z E OXdX'.$.$.$.$.$.[ -.=XL w , = T                           ",
"                    b o X & % 0 n 7.7XrXa.p.%.%.%.%.+.) qX7.j ; + : r                           ",
"                    8 * $ % 7 B U.uX|.y.i.i.i.i.i.y.) }.OXV 7 + + ; - R                         ",
"                  S o $ , ; u 8.fXk.d.d.d.d.d.f.f.&.=.8XW y + + & o o h                         ",
"                  j % o . O w G hXA.B.B.B.Z.Z.e.N.o.wXx.B 5 % ; 2 * o 9                         ",
"                  q % % + + 5 b `.9XN.N.N.N.r.w.N. X#X6.Z b c v z u 4 -                         ",
"                  7 % o . . % e Z eX^.S.D.r.e.^.H.>XoXE..X.X.XXX9.I e + 4.                      ",
"                  8 % o . . + * f ^ tXD.r.e.L.7Xg.dXjXpX2X2X3X7XK.N 6 + R                       ",
"                  8 % o . . + o 7 v ,Xq.~ 6.iX].|.3.X.M ( o.R.P.J y > + 4.                      ",
"                  r % + . . % , ; u c F L XXrX) ( ( ( O.u.R.P.Y a > O %                         ",
"                  l o o o . 2 . X > 0 x ! fXX._ _ { y.s.W.I.U u * O X 7                         ",
"                  S o @ ; . o o X O 5 c -X2.` _ o.s.Z.+XE.U f > O X # d                         ",
"                    1 X % . . + X % u / sX' } w.N.z.+XI.Y a * X O + o R                         ",
"                    z o & , O + + 5 v yX,.#.z.b.z.oXQ.Q g * . O O % q                           ",
"                      5 . & . . % i _.wX0.v.c.c.E.P.Q d > & . # . O U                           ",
"                      K = + o . 5 C dXL.v.v.c.Q.x.U f 4 X . $ $ . g                             ",
"                        k < . % s `.*Xm.M.n.G.x.P p % X . X X X q                               ",
"                          m = 7 H iXY.m.M.n.l.J p > O # X X o y                                 ",
"                            L x <XXXm.m.G.e.D t % X . X O O g                                   ",
"                              /.4XY.m.F.t.Z u % . X X + t R                                     ",
"                              tX%XY.F.t.I a 3 % > e l 4.                                        ",
"                            +X5X).G.q.S.                                                        ",
"                            -X).T.r.                                                            ",
"                          oX&XR.0.                                                              ",
"                          :XOXq.                                                                ",
"                        (.=Xh.                                                                  ",
"                        +Xh.                                                                    ",
"                      ~.A.                                                                      ",
"                                                                                                ",
"                                                                                                ",
"                                                                                                "
};
