<svg width="16" height="16" viewBox="0 0 16 16" fill="none" xmlns="http://www.w3.org/2000/svg">
<g clip-path="url(#clip0_1_283)">
<mask id="mask0_1_283" style="mask-type:luminance" maskUnits="userSpaceOnUse" x="0" y="0" width="16" height="16">
<path d="M16 0H0V16H16V0Z" fill="white"/>
</mask>
<g mask="url(#mask0_1_283)">
<path d="M13.92 4.12491C13.8025 4.02776 13.6549 3.97461 13.5025 3.97461C13.35 3.97461 13.2024 4.02776 13.085 4.12491L5.72295 10.7999L2.91395 8.19991C2.79651 8.10276 2.64887 8.04961 2.49645 8.04961C2.34404 8.04961 2.19639 8.10276 2.07895 8.19991L1.69995 8.52991L5.34295 11.8669C5.45144 11.952 5.58507 11.9988 5.72295 11.9999C5.86083 11.9988 5.99446 11.952 6.10295 11.8669L14.303 4.52591L13.92 4.12491Z" fill="#0A94F4"/>
</g>
</g>
<defs>
<clipPath id="clip0_1_283">
<rect width="16" height="16" fill="white"/>
</clipPath>
</defs>
</svg>
