<svg width="24" height="31" viewBox="0 0 24 31" fill="none" xmlns="http://www.w3.org/2000/svg">
<path d="M21.7 22.6L18.7 21L21.4 20.5C21.9 20.5 22.2 20 21.9 19.4C21.9 18.9 21.4 18.6 20.8 18.9L16.5 20L13.5 18.4L16.5 16.8L20.8 17.9H21.1C21.4 17.9 21.9 17.6 21.9 17.4C21.9 16.9 21.6 16.6 21.4 16.3L18.7 15.8L21.7 14.2C22.2 13.9 22.2 13.4 22 13.1C21.7 12.8 21.2 12.6 20.9 12.8L17.9 14.4L18.7 12C18.7 11.5 18.4 11.2 18.2 10.9C17.7 10.9 17.1 11.2 17.1 11.4L16 15.3L13 16.9V13.6L16.3 10.6C16.6 10.3 16.6 9.8 16.3 9.5C16 9.2 15.5 9.2 14.9 9.5L13.1 11.5V8.3C13.1 7.8 12.8 7.5 12.3 7.5C11.8 7.5 11.5 7.8 11.5 8.3V11.5L9.29999 9.4C8.99999 9.1 8.49999 9.1 7.89999 9.4C7.59999 9.7 7.59999 10.2 7.89999 10.5L11.2 13.5V16.8L8.19999 15.2L7.09999 11.1C7.09999 10.6 6.59999 10.3 5.99999 10.6C5.49999 10.6 5.19999 11.1 5.49999 11.7L6.29999 14.1L3.29999 12.5C2.79999 12.2 2.19999 12.5 2.19999 12.8C1.89999 13.1 2.19999 13.6 2.49999 13.9L5.49999 15.5L2.79999 16C2.29999 16 1.99999 16.5 2.29999 17.1C2.19999 17.2 2.79999 17.5 2.99999 17.5H3.29999L7.59999 16.4L10.6 18L7.59999 19.6L3.29999 18.5C2.79999 18.5 2.19999 18.8 2.19999 19C2.19999 19.5 2.49999 19.8 2.69999 20.1L5.39999 20.6L2.39999 22.2C1.89999 22.5 1.89999 23 2.09999 23.3C2.39999 23.6 2.59999 23.8 2.89999 23.8C3.19999 23.8 3.19999 23.8 3.39999 23.8L6.09999 22.2L5.29999 24.9C5.29999 25.4 5.59999 25.7 5.79999 26H6.09999C6.39999 26 6.89999 25.7 6.89999 25.5L7.99999 21.4L11 19.8V23.1L7.69999 26.1C7.39999 26.4 7.39999 26.9 7.69999 27.2C7.99999 27.5 8.49999 27.5 9.09999 27.2L11 25.3V28.6C11 29.1 11.3 29.4 11.8 29.4C12.3 29.4 12.6 29.1 12.6 28.6V25.3L14.5 27.2C15 27.5 15 27.5 15.2 27.5C15.5 27.5 15.7 27.5 15.7 27.2C16 26.9 16 26.4 15.7 26.1L12.4 23.1V19.6L15.4 21.2L16.5 25.3C16.5 25.6 17 25.8 17.3 25.8H17.6C18.1 25.8 18.4 25.3 18.1 24.7V22.3L21.1 23.9C21.4 23.9 21.4 23.9 21.6 23.9C21.9 23.9 22.1 23.6 22.4 23.4C22.6 23.5 22.3 22.9 21.7 22.6Z" fill="white"/>
</svg>
