<svg width="24" height="32" viewBox="0 0 24 32" fill="none" xmlns="http://www.w3.org/2000/svg">
<path d="M21.7 23.1L18.7 21.5L21.4 21C21.9 21 22.2 20.5 21.9 19.9C21.9 19.4 21.4 19.1 20.8 19.4L16.5 20.5L13.5 18.9L16.5 17.3L20.8 18.4H21.1C21.4 18.4 21.9 18.1 21.9 17.9C21.9 17.4 21.6 17.1 21.4 16.8L18.7 16.3L21.7 14.7C22.2 14.4 22.2 13.9 22 13.6C21.7 13.3 21.2 13.1 20.9 13.3L17.9 14.9L18.7 12.5C18.7 12 18.4 11.7 18.2 11.4C17.7 11.4 17.1 11.7 17.1 11.9L16 15.8L13 17.4V14.1L16.3 11.1C16.6 10.8 16.6 10.3 16.3 10C16 9.7 15.5 9.7 14.9 10L13.1 12V8.8C13.1 8.3 12.8 8 12.3 8C11.8 8 11.5 8.3 11.5 8.8V12L9.30005 9.9C9.00005 9.6 8.50005 9.6 7.90005 9.9C7.60005 10.2 7.60005 10.7 7.90005 11L11.2 14V17.3L8.20005 15.7L7.10005 11.6C7.10005 11.1 6.60005 10.8 6.00005 11.1C5.50005 11.1 5.20005 11.6 5.50005 12.2L6.30005 14.6L3.30005 13C2.80005 12.7 2.20005 13 2.20005 13.3C1.90005 13.6 2.20005 14.1 2.50005 14.4L5.50005 16L2.80005 16.5C2.30005 16.5 2.00005 17 2.30005 17.6C2.20005 17.7 2.80005 18 3.00005 18H3.30005L7.60005 16.9L10.6 18.5L7.60005 20.1L3.30005 19C2.80005 19 2.20005 19.3 2.20005 19.5C2.20005 20 2.50005 20.3 2.70005 20.6L5.40005 21.1L2.40005 22.7C1.90005 23 1.90005 23.5 2.10005 23.8C2.40005 24.1 2.60005 24.3 2.90005 24.3C3.20005 24.3 3.20005 24.3 3.40005 24.3L6.10005 22.7L5.30005 25.4C5.30005 25.9 5.60005 26.2 5.80005 26.5H6.10005C6.40005 26.5 6.90005 26.2 6.90005 26L8.00005 21.9L11 20.3V23.6L7.70005 26.6C7.40005 26.9 7.40005 27.4 7.70005 27.7C8.00005 28 8.50005 28 9.10005 27.7L11 25.8V29.1C11 29.6 11.3 29.9 11.8 29.9C12.3 29.9 12.6 29.6 12.6 29.1V25.8L14.5 27.7C15 28 15 28 15.2 28C15.5 28 15.7 28 15.7 27.7C16 27.4 16 26.9 15.7 26.6L12.4 23.6V20.1L15.4 21.7L16.5 25.8C16.5 26.1 17 26.3 17.3 26.3H17.6C18.1 26.3 18.4 25.8 18.1 25.2V22.8L21.1 24.4C21.4 24.4 21.4 24.4 21.6 24.4C21.9 24.4 22.1 24.1 22.4 23.9C22.6 24 22.3 23.4 21.7 23.1Z" fill="#42C0DC"/>
</svg>
