<svg width="40" height="26" viewBox="0 0 40 26" fill="none" xmlns="http://www.w3.org/2000/svg">
<g clip-path="url(#clip0_1_821)">
<path opacity="0.5" fill-rule="evenodd" clip-rule="evenodd" d="M33.9999 11.223C34.0056 12.1439 33.8284 13.0567 33.4787 13.9086C33.1289 14.7604 32.6135 15.5344 31.9624 16.1855C31.3112 16.8367 30.5373 17.3521 29.6854 17.7018C28.8336 18.0516 27.9207 18.2287 26.9999 18.223H6.99989C6.07904 18.2287 5.16622 18.0516 4.31436 17.7018C3.46251 17.3521 2.68856 16.8367 2.03741 16.1855C1.38626 15.5344 0.870865 14.7604 0.521104 13.9086C0.171343 13.0567 -0.00581982 12.1439 -0.000110412 11.223C-0.00581982 10.3022 0.171343 9.38937 0.521104 8.53751C0.870865 7.68565 1.38626 6.91171 2.03741 6.26056C2.68856 5.60941 3.46251 5.09401 4.31436 4.74425C5.16622 4.39449 6.07904 4.21732 6.99989 4.22303H26.9999C27.9207 4.21732 28.8336 4.39449 29.6854 4.74425C30.5373 5.09401 31.3112 5.60941 31.9624 6.26056C32.6135 6.91171 33.1289 7.68565 33.4787 8.53751C33.8284 9.38937 34.0056 10.3022 33.9999 11.223Z" fill="#42C0DC"/>
<g filter="url(#filter0_d_1_821)">
<path d="M27 1C28.9778 1 30.9112 1.58649 32.5557 2.6853C34.2002 3.78412 35.4819 5.3459 36.2388 7.17317C36.9957 9.00043 37.1937 11.0111 36.8079 12.9509C36.422 14.8907 35.4696 16.6725 34.0711 18.0711C32.6725 19.4696 30.8907 20.422 28.9509 20.8079C27.0111 21.1937 25.0004 20.9957 23.1732 20.2388C21.3459 19.4819 19.7841 18.2002 18.6853 16.5557C17.5865 14.9112 17 12.9778 17 11C17 8.34784 18.0536 5.8043 19.9289 3.92893C21.8043 2.05357 24.3478 1 27 1Z" fill="#42C0DC"/>
</g>
</g>
<defs>
<filter id="filter0_d_1_821" x="15" y="1" width="24" height="24" filterUnits="userSpaceOnUse" color-interpolation-filters="sRGB">
<feFlood flood-opacity="0" result="BackgroundImageFix"/>
<feColorMatrix in="SourceAlpha" type="matrix" values="0 0 0 0 0 0 0 0 0 0 0 0 0 0 0 0 0 0 127 0" result="hardAlpha"/>
<feOffset dy="2"/>
<feGaussianBlur stdDeviation="1"/>
<feColorMatrix type="matrix" values="0 0 0 0 0 0 0 0 0 0 0 0 0 0 0 0 0 0 0.239 0"/>
<feBlend mode="normal" in2="BackgroundImageFix" result="effect1_dropShadow_1_821"/>
<feBlend mode="normal" in="SourceGraphic" in2="effect1_dropShadow_1_821" result="shape"/>
</filter>
<clipPath id="clip0_1_821">
<rect width="40" height="26" fill="white"/>
</clipPath>
</defs>
</svg>
